<svg xmlns="http://www.w3.org/2000/svg" viewBox="0 0 300 300" role="img" aria-labelledby="title">
  <title id="title">Working Bee Service secondary mark</title>
  <defs>
    <radialGradient id="green" cx="50%" cy="38%" r="62%">
      <stop offset="0" stop-color="#143a2d"/>
      <stop offset="1" stop-color="#0e2b20"/>
    </radialGradient>
    <linearGradient id="gold" x1="0" x2="1">
      <stop offset="0" stop-color="#e6d5a3"/>
      <stop offset="0.45" stop-color="#c8a24d"/>
      <stop offset="1" stop-color="#f1dfac"/>
    </linearGradient>
  </defs>
  <circle cx="150" cy="150" r="144" fill="url(#green)"/>
  <circle cx="150" cy="150" r="136" fill="none" stroke="url(#gold)" stroke-width="7"/>
  <circle cx="150" cy="150" r="124" fill="none" stroke="#c8a24d" stroke-width="2"/>
  <text x="150" y="122" text-anchor="middle" font-family="Georgia, 'Times New Roman', serif" font-size="78" fill="url(#gold)">W</text>
  <line x1="93" y1="145" x2="207" y2="145" stroke="#c8a24d" stroke-width="4"/>
  <text x="150" y="223" text-anchor="middle" font-family="Georgia, 'Times New Roman', serif" font-size="84" fill="url(#gold)">B</text>
  <path d="M76 188c-15-18-20-43-13-66m161 66c15-18 20-43 13-66" fill="none" stroke="#c8a24d" stroke-width="4" stroke-linecap="round"/>
  <g fill="#c8a24d">
    <ellipse cx="141" cy="254" rx="8" ry="4"/>
    <ellipse cx="159" cy="254" rx="8" ry="4"/>
    <ellipse cx="150" cy="248" rx="7" ry="9"/>
    <path d="M143 242c-8-8-17-10-27-8 8 7 16 10 27 8Zm14 0c8-8 17-10 27-8-8 7-16 10-27 8Z"/>
  </g>
</svg>
